<mxfile host="app.diagrams.net" agent="Mozilla/5.0 (Macintosh; Intel Mac OS X 10_15_7) AppleWebKit/537.36 (KHTML, like Gecko) Chrome/129.0.0.0 Safari/537.36" version="24.7.17">
  <diagram id="WvHjm1HEhhVKs3oMtiiu" name="Page-1">
    <mxGraphModel dx="736" dy="525" grid="1" gridSize="10" guides="1" tooltips="1" connect="1" arrows="1" fold="1" page="1" pageScale="1" pageWidth="1100" pageHeight="850" math="1" shadow="0">
      <root>
        <mxCell id="0" />
        <mxCell id="1" parent="0" />
        <mxCell id="xBYAKWbB2OGDabFkx_kC-47" value="" style="rounded=1;whiteSpace=wrap;html=1;fillColor=none;aspect=fixed;dashed=1;strokeColor=#000000;" parent="1" vertex="1">
          <mxGeometry x="145" y="105" width="50" height="50" as="geometry" />
        </mxCell>
        <mxCell id="xBYAKWbB2OGDabFkx_kC-48" value="" style="rounded=1;whiteSpace=wrap;html=1;fillColor=none;aspect=fixed;dashed=1;strokeColor=#afafaf;" parent="1" vertex="1">
          <mxGeometry x="110" y="175" width="50" height="50" as="geometry" />
        </mxCell>
        <mxCell id="xBYAKWbB2OGDabFkx_kC-49" value="" style="rounded=1;whiteSpace=wrap;html=1;fillColor=none;aspect=fixed;dashed=1;strokeColor=#afafaf;" parent="1" vertex="1">
          <mxGeometry x="40" y="175" width="50" height="50" as="geometry" />
        </mxCell>
        <mxCell id="xBYAKWbB2OGDabFkx_kC-50" value="" style="rounded=1;whiteSpace=wrap;html=1;fillColor=none;aspect=fixed;dashed=1;strokeColor=#afafaf;" parent="1" vertex="1">
          <mxGeometry x="75" y="105" width="50" height="50" as="geometry" />
        </mxCell>
        <mxCell id="xBYAKWbB2OGDabFkx_kC-51" value="&lt;font style=&quot;font-size: 19px;&quot;&gt;$$x$$&lt;/font&gt;" style="rounded=1;whiteSpace=wrap;html=1;fillColor=#ebebeb;aspect=fixed;strokeColor=#AFAFAF;" parent="1" vertex="1">
          <mxGeometry x="45" y="180" width="40" height="40" as="geometry" />
        </mxCell>
        <mxCell id="xBYAKWbB2OGDabFkx_kC-52" value="&lt;font style=&quot;font-size: 17px;&quot;&gt;$$8$$&lt;/font&gt;" style="rounded=1;whiteSpace=wrap;html=1;fillColor=#ebebeb;aspect=fixed;strokeColor=#AFAFAF;" parent="1" vertex="1">
          <mxGeometry x="115" y="180" width="40" height="40" as="geometry" />
        </mxCell>
        <mxCell id="xBYAKWbB2OGDabFkx_kC-53" value="" style="rounded=1;whiteSpace=wrap;html=1;fillColor=none;dashed=1;strokeColor=#000000;" parent="1" vertex="1">
          <mxGeometry x="75" y="35" width="120" height="50" as="geometry" />
        </mxCell>
        <mxCell id="xBYAKWbB2OGDabFkx_kC-54" style="rounded=0;orthogonalLoop=1;jettySize=auto;html=1;exitX=0.25;exitY=1;exitDx=0;exitDy=0;entryX=0.5;entryY=0;entryDx=0;entryDy=0;strokeColor=#AFAFAF;startSize=6;endSize=2;" parent="1" source="xBYAKWbB2OGDabFkx_kC-56" target="xBYAKWbB2OGDabFkx_kC-49" edge="1">
          <mxGeometry relative="1" as="geometry" />
        </mxCell>
        <mxCell id="xBYAKWbB2OGDabFkx_kC-55" style="rounded=0;orthogonalLoop=1;jettySize=auto;html=1;exitX=0.75;exitY=1;exitDx=0;exitDy=0;entryX=0.25;entryY=0;entryDx=0;entryDy=0;strokeColor=#AFAFAF;endSize=2;" parent="1" source="xBYAKWbB2OGDabFkx_kC-56" target="xBYAKWbB2OGDabFkx_kC-48" edge="1">
          <mxGeometry relative="1" as="geometry" />
        </mxCell>
        <mxCell id="xBYAKWbB2OGDabFkx_kC-56" value="&lt;font style=&quot;font-size: 17px;&quot;&gt;$$+$$&lt;/font&gt;" style="rounded=1;whiteSpace=wrap;html=1;fillColor=#ebebeb;aspect=fixed;strokeColor=#AFAFAF;" parent="1" vertex="1">
          <mxGeometry x="80" y="110" width="40" height="40" as="geometry" />
        </mxCell>
        <mxCell id="xBYAKWbB2OGDabFkx_kC-57" style="edgeStyle=orthogonalEdgeStyle;rounded=0;orthogonalLoop=1;jettySize=auto;html=1;exitX=0.25;exitY=1;exitDx=0;exitDy=0;entryX=0.302;entryY=0;entryDx=0;entryDy=0;entryPerimeter=0;strokeColor=#afafaf;endSize=2;" parent="1" source="xBYAKWbB2OGDabFkx_kC-59" target="xBYAKWbB2OGDabFkx_kC-50" edge="1">
          <mxGeometry relative="1" as="geometry" />
        </mxCell>
        <mxCell id="xBYAKWbB2OGDabFkx_kC-58" style="edgeStyle=orthogonalEdgeStyle;rounded=1;orthogonalLoop=1;jettySize=auto;html=1;exitX=0.75;exitY=1;exitDx=0;exitDy=0;entryX=0.5;entryY=0;entryDx=0;entryDy=0;strokeColor=#afafaf;endSize=2;" parent="1" source="xBYAKWbB2OGDabFkx_kC-59" target="xBYAKWbB2OGDabFkx_kC-48" edge="1">
          <mxGeometry relative="1" as="geometry">
            <Array as="points">
              <mxPoint x="110" y="95" />
              <mxPoint x="135" y="95" />
            </Array>
          </mxGeometry>
        </mxCell>
        <mxCell id="xBYAKWbB2OGDabFkx_kC-59" value="&lt;font style=&quot;font-size: 17px;&quot;&gt;$$-$$&lt;/font&gt;" style="rounded=1;whiteSpace=wrap;html=1;fillColor=#ebebeb;aspect=fixed;strokeColor=#AFAFAF;" parent="1" vertex="1">
          <mxGeometry x="80" y="40" width="40" height="40" as="geometry" />
        </mxCell>
        <mxCell id="xBYAKWbB2OGDabFkx_kC-61" style="edgeStyle=orthogonalEdgeStyle;rounded=0;orthogonalLoop=1;jettySize=auto;html=1;exitX=0.75;exitY=1;exitDx=0;exitDy=0;entryX=0.698;entryY=-0.001;entryDx=0;entryDy=0;entryPerimeter=0;endSize=2;" parent="1" source="xBYAKWbB2OGDabFkx_kC-63" target="xBYAKWbB2OGDabFkx_kC-47" edge="1">
          <mxGeometry relative="1" as="geometry" />
        </mxCell>
        <mxCell id="xBYAKWbB2OGDabFkx_kC-62" style="edgeStyle=orthogonalEdgeStyle;rounded=1;orthogonalLoop=1;jettySize=auto;html=1;exitX=0.25;exitY=1;exitDx=0;exitDy=0;entryX=0.97;entryY=0.962;entryDx=0;entryDy=0;entryPerimeter=0;endSize=2;" parent="1" source="xBYAKWbB2OGDabFkx_kC-63" target="xBYAKWbB2OGDabFkx_kC-49" edge="1">
          <mxGeometry relative="1" as="geometry">
            <Array as="points">
              <mxPoint x="160" y="95" />
              <mxPoint x="205" y="95" />
              <mxPoint x="205" y="235" />
              <mxPoint x="88" y="235" />
            </Array>
          </mxGeometry>
        </mxCell>
        <mxCell id="xBYAKWbB2OGDabFkx_kC-63" value="&lt;font style=&quot;font-size: 17px;&quot;&gt;$$+$$&lt;/font&gt;" style="rounded=1;whiteSpace=wrap;html=1;fillColor=none;aspect=fixed;" parent="1" vertex="1">
          <mxGeometry x="150" y="40" width="40" height="40" as="geometry" />
        </mxCell>
        <mxCell id="xBYAKWbB2OGDabFkx_kC-64" style="edgeStyle=orthogonalEdgeStyle;rounded=1;orthogonalLoop=1;jettySize=auto;html=1;exitX=0.25;exitY=1;exitDx=0;exitDy=0;entryX=0.75;entryY=0;entryDx=0;entryDy=0;endSize=2;" parent="1" source="xBYAKWbB2OGDabFkx_kC-66" target="xBYAKWbB2OGDabFkx_kC-48" edge="1">
          <mxGeometry relative="1" as="geometry">
            <Array as="points">
              <mxPoint x="160" y="165" />
              <mxPoint x="148" y="165" />
            </Array>
          </mxGeometry>
        </mxCell>
        <mxCell id="xBYAKWbB2OGDabFkx_kC-65" style="edgeStyle=orthogonalEdgeStyle;rounded=1;orthogonalLoop=1;jettySize=auto;html=1;exitX=0.75;exitY=1;exitDx=0;exitDy=0;entryX=0.75;entryY=0;entryDx=0;entryDy=0;endSize=2;" parent="1" source="xBYAKWbB2OGDabFkx_kC-66" target="xBYAKWbB2OGDabFkx_kC-48" edge="1">
          <mxGeometry relative="1" as="geometry">
            <Array as="points">
              <mxPoint x="180" y="165" />
              <mxPoint x="148" y="165" />
            </Array>
          </mxGeometry>
        </mxCell>
        <mxCell id="xBYAKWbB2OGDabFkx_kC-66" value="&lt;font style=&quot;font-size: 17px;&quot;&gt;$$-$$&lt;/font&gt;" style="rounded=1;whiteSpace=wrap;html=1;fillColor=none;aspect=fixed;" parent="1" vertex="1">
          <mxGeometry x="150" y="110" width="40" height="40" as="geometry" />
        </mxCell>
        <mxCell id="Nw6S_WxXrPXPYGtQqn3--1" value="" style="rounded=0;whiteSpace=wrap;html=1;fillColor=none;strokeColor=none;rotation=90;" parent="1" vertex="1">
          <mxGeometry x="34" y="199.5" width="10" height="1" as="geometry" />
        </mxCell>
        <mxCell id="Nw6S_WxXrPXPYGtQqn3--2" value="" style="rounded=0;whiteSpace=wrap;html=1;fillColor=none;strokeColor=none;rotation=-180;" parent="1" vertex="1">
          <mxGeometry x="130" y="34" width="10" height="1" as="geometry" />
        </mxCell>
      </root>
    </mxGraphModel>
  </diagram>
</mxfile>
